<svg height="512pt" viewBox="0 0 512 512" width="512pt" xmlns="http://www.w3.org/2000/svg"><path d="m264.828125 441.378906h-247.171875c-9.738281-.027344-17.6289062-7.917968-17.65625-17.65625v-406.066406c.0273438-9.738281 7.917969-17.6289062 17.65625-17.65625h264.828125c9.738281.0273438 17.625 7.917969 17.652344 17.65625v308.964844zm0 0" fill="#e6e7e8"/><path d="m0 70.621094 70.621094-70.621094v61.792969c0 4.875-3.953125 8.828125-8.828125 8.828125zm0 0" fill="#a5a5a4"/><path d="m61.792969 141.242188c-2.339844 0-4.585938-.933594-6.242188-2.585938l-17.652343-17.65625c-3.347657-3.464844-3.300782-8.96875.105468-12.375s8.910156-3.453125 12.375-.109375l10.679688 10.683594 29.132812-36.441407c3.046875-3.808593 8.605469-4.421874 12.410156-1.375 3.808594 3.046876 4.425782 8.601563 1.378907 12.410157l-35.3125 44.136719c-1.558594 1.960937-3.878907 3.164062-6.378907 3.3125zm0 0" fill="#4fba6f"/><path d="m61.792969 256c-2.339844 0-4.585938-.929688-6.242188-2.585938l-17.652343-17.65625c-3.347657-3.464843-3.300782-8.96875.105468-12.375 3.40625-3.402343 8.910156-3.453124 12.375-.105468l10.679688 10.679687 29.132812-36.441406c1.972656-2.460937 5.105469-3.6875 8.226563-3.210937 3.117187.476562 5.746093 2.578124 6.894531 5.519531 1.144531 2.9375.640625 6.265625-1.332031 8.726562l-35.3125 44.140625c-1.558594 1.957032-3.878907 3.160156-6.378907 3.308594zm0 0" fill="#4fba6f"/><path d="m61.792969 370.757812c-2.339844 0-4.585938-.929687-6.242188-2.585937l-17.652343-17.65625c-3.347657-3.460937-3.300782-8.96875.105468-12.375 3.40625-3.402344 8.910156-3.453125 12.375-.105469l10.679688 10.679688 29.132812-36.4375c3.046875-3.808594 8.605469-4.425782 12.410156-1.378906 3.808594 3.046874 4.425782 8.605468 1.378907 12.410156l-35.3125 44.140625c-1.558594 1.957031-3.878907 3.160156-6.378907 3.308593zm0 0" fill="#4fba6f"/><g fill="#5e5f62"><path d="m264.828125 97.101562h-114.757813c-4.875 0-8.828124-3.949218-8.828124-8.824218s3.953124-8.828125 8.828124-8.828125h114.757813c4.875 0 8.828125 3.953125 8.828125 8.828125s-3.953125 8.824218-8.828125 8.824218zm0 0"/><path d="m185.378906 141.242188h-35.308594c-4.875 0-8.828124-3.953126-8.828124-8.828126s3.953124-8.828124 8.828124-8.828124h35.308594c4.875 0 8.828125 3.953124 8.828125 8.828124s-3.953125 8.828126-8.828125 8.828126zm0 0"/><path d="m264.828125 141.242188h-35.3125c-4.875 0-8.824219-3.953126-8.824219-8.828126s3.949219-8.828124 8.824219-8.828124h35.3125c4.875 0 8.828125 3.953124 8.828125 8.828124s-3.953125 8.828126-8.828125 8.828126zm0 0"/><path d="m211.863281 211.863281h-61.792969c-4.875 0-8.828124-3.953125-8.828124-8.828125s3.953124-8.828125 8.828124-8.828125h61.792969c4.875 0 8.828125 3.953125 8.828125 8.828125s-3.953125 8.828125-8.828125 8.828125zm0 0"/><path d="m176.550781 256h-26.480469c-4.875 0-8.828124-3.953125-8.828124-8.828125s3.953124-8.828125 8.828124-8.828125h26.480469c4.875 0 8.828125 3.953125 8.828125 8.828125s-3.953125 8.828125-8.828125 8.828125zm0 0"/><path d="m176.550781 326.621094h-35.308593c-4.875 0-8.828126-3.953125-8.828126-8.828125s3.953126-8.828125 8.828126-8.828125h35.308593c4.875 0 8.828125 3.953125 8.828125 8.828125s-3.953125 8.828125-8.828125 8.828125zm0 0"/><path d="m176.550781 370.757812h-35.308593c-4.875 0-8.828126-3.953124-8.828126-8.828124s3.953126-8.828126 8.828126-8.828126h35.308593c4.875 0 8.828125 3.953126 8.828125 8.828126s-3.953125 8.828124-8.828125 8.828124zm0 0"/></g><path d="m211.863281 203.035156h266c18.851563 0 34.136719 15.28125 34.136719 34.136719v239.519531c0 19.5-15.808594 35.308594-35.308594 35.308594h-266.003906c-18.851562 0-34.136719-15.285156-34.136719-34.136719v-239.519531c0-19.5 15.808594-35.308594 35.3125-35.308594zm0 0" fill="#d1d4d1"/><path d="m211.863281 203.035156h264.828125c19.5 0 35.308594 15.808594 35.308594 35.308594v17.65625h-335.449219v-17.65625c0-19.5 15.808594-35.308594 35.3125-35.308594zm0 0" fill="#c03a2b"/><path d="m264.828125 485.515625c-4.875 0-8.828125-3.949219-8.828125-8.824219v-185.382812c0-4.875 3.953125-8.824219 8.828125-8.824219s8.828125 3.949219 8.828125 8.824219v185.382812c0 4.875-3.953125 8.824219-8.828125 8.824219zm0 0" fill="#a5a5a4"/><path d="m317.792969 485.515625c-4.875 0-8.828125-3.949219-8.828125-8.824219v-185.382812c0-4.875 3.953125-8.824219 8.828125-8.824219s8.828125 3.949219 8.828125 8.824219v185.382812c0 4.875-3.953125 8.824219-8.828125 8.824219zm0 0" fill="#a5a5a4"/><path d="m370.757812 485.515625c-4.875 0-8.828124-3.949219-8.828124-8.824219v-185.382812c0-4.875 3.953124-8.824219 8.828124-8.824219s8.828126 3.949219 8.828126 8.824219v185.382812c0 4.875-3.953126 8.824219-8.828126 8.824219zm0 0" fill="#a5a5a4"/><path d="m423.722656 485.515625c-4.875 0-8.824218-3.949219-8.824218-8.824219v-185.382812c0-4.875 3.949218-8.824219 8.824218-8.824219s8.828125 3.949219 8.828125 8.824219v185.382812c0 4.875-3.953125 8.824219-8.828125 8.824219zm0 0" fill="#a5a5a4"/><path d="m476.691406 361.929688h-264.828125c-4.875 0-8.828125-3.949219-8.828125-8.828126 0-4.875 3.953125-8.824218 8.828125-8.824218h264.828125c4.875 0 8.824219 3.949218 8.824219 8.824218 0 4.878907-3.949219 8.828126-8.824219 8.828126zm0 0" fill="#a5a5a4"/><path d="m476.691406 423.722656h-264.828125c-4.875 0-8.828125-3.949218-8.828125-8.824218 0-4.878907 3.953125-8.828126 8.828125-8.828126h264.828125c4.875 0 8.824219 3.949219 8.824219 8.828126 0 4.875-3.949219 8.824218-8.824219 8.824218zm0 0" fill="#a5a5a4"/><path d="m457.851562 485.515625h-227.152343c-15.484375-.230469-27.859375-12.953125-27.664063-28.441406v-146.148438c-.195312-15.488281 12.179688-28.210937 27.664063-28.441406h227.152343c15.484376.230469 27.863282 12.953125 27.664063 28.441406v146.148438c.199219 15.488281-12.179687 28.210937-27.664063 28.441406zm-227.152343-185.378906c-5.734375.230469-10.207031 5.050781-10.007813 10.789062v146.148438c-.199218 5.738281 4.273438 10.558593 10.007813 10.789062h227.152343c5.734376-.230469 10.210938-5.050781 10.011719-10.789062v-146.148438c.199219-5.738281-4.277343-10.558593-10.011719-10.789062zm0 0" fill="#5e5f62"/><path d="m423.722656 229.515625c-4.875 0-8.824218-3.949219-8.824218-8.824219v-35.3125c0-4.875 3.949218-8.828125 8.824218-8.828125s8.828125 3.953125 8.828125 8.828125v35.3125c0 4.875-3.953125 8.824219-8.828125 8.824219zm0 0" fill="#a5a5a4"/><path d="m264.828125 229.515625c-4.875 0-8.828125-3.949219-8.828125-8.824219v-35.3125c0-4.875 3.953125-8.828125 8.828125-8.828125s8.828125 3.953125 8.828125 8.828125v35.3125c0 4.875-3.953125 8.824219-8.828125 8.824219zm0 0" fill="#a5a5a4"/></svg>